<?xml version="1.0" standalone="no"?>
<!DOCTYPE svg PUBLIC "-//W3C//DTD SVG 20010904//EN"
 "http://www.w3.org/TR/2001/REC-SVG-20010904/DTD/svg10.dtd">
<svg version="1.0" xmlns="http://www.w3.org/2000/svg"
 width="900.000000pt" height="507.000000pt" viewBox="0 0 900.000000 507.000000"
 preserveAspectRatio="xMidYMid meet">

<g transform="translate(0.000000,507.000000) scale(0.100000,-0.100000)"
fill="#000000" stroke="none">
<path d="M3660 4283 c-19 -2 -91 -10 -160 -18 -69 -8 -190 -15 -267 -15 l-142
0 -5 -32 c-3 -18 -13 -85 -22 -148 -8 -63 -43 -223 -75 -355 -82 -324 -100
-419 -93 -466 5 -32 4 -39 -10 -39 -18 0 -15 12 -61 -219 -57 -279 -75 -345
-75 -279 0 15 -3 28 -7 30 -5 2 -6 111 -3 243 9 363 4 518 -17 599 l-19 69
-26 -31 c-14 -17 -28 -37 -31 -44 -9 -25 -15 -2 -19 75 -3 42 -1 77 4 77 4 0
8 18 8 39 0 31 -10 52 -45 99 -57 76 -158 170 -238 222 -55 36 -62 44 -62 73
0 28 -3 32 -30 35 -16 2 -37 6 -45 9 -8 3 -44 5 -80 4 -36 -2 -106 6 -155 16
-80 16 -145 18 -584 18 l-493 0 -51 -145 c-54 -155 -54 -156 -63 -148 -3 3 10
72 29 152 l34 146 -34 0 c-18 0 -33 -2 -33 -5 0 -12 -143 -521 -147 -525 -12
-10 53 374 84 498 5 21 2 23 -23 20 l-28 -3 -21 -186 c-12 -111 -25 -192 -33
-202 -11 -13 -12 -111 -8 -519 3 -277 8 -536 12 -577 4 -51 2 -81 -7 -97 -14
-28 -8 -271 16 -584 20 -259 20 -260 -5 -260 -16 0 -20 -7 -20 -38 0 -21 7
-47 15 -58 19 -25 19 -50 0 -58 -8 -3 -15 -14 -15 -25 0 -10 -12 -26 -26 -36
-20 -13 -23 -19 -13 -31 6 -8 18 -14 25 -14 11 0 14 -26 14 -126 l0 -127 46
-103 c26 -57 50 -104 55 -104 5 0 9 -12 9 -26 0 -26 2 -26 42 -20 23 4 44 9
47 11 2 3 15 53 28 112 25 111 83 253 90 221 2 -9 -7 -66 -22 -125 -40 -165
-44 -187 -40 -191 2 -2 16 3 33 12 28 14 31 14 63 -9 41 -31 79 -33 79 -6 0
11 -5 23 -10 26 -27 17 13 115 47 115 15 0 17 16 3 25 -16 10 -12 82 5 89 8 3
15 13 15 23 0 9 12 29 27 45 l26 28 29 -30 c15 -16 28 -32 28 -35 0 -6 13 -22
41 -53 29 -32 50 -74 45 -88 -3 -8 -1 -14 5 -14 6 0 9 -12 7 -27 -2 -16 3 -33
11 -39 20 -16 7 -57 -29 -91 -39 -36 -38 -51 3 -55 29 -3 32 -6 29 -33 -2 -16
-11 -36 -19 -42 -25 -19 -13 -22 37 -12 87 19 130 26 135 21 2 -2 34 -6 70 -7
50 -2 65 1 65 12 0 8 -4 12 -9 9 -12 -8 -18 13 -15 54 1 23 11 42 29 57 33 29
39 29 61 -4 15 -23 18 -43 15 -105 -2 -64 0 -78 12 -78 8 0 14 6 13 13 0 6 4
12 9 12 6 0 9 -8 8 -18 -3 -20 8 -21 67 -3 41 12 45 16 43 42 -5 91 -5 132 1
142 4 7 2 21 -4 33 -7 11 -16 49 -20 83 -9 60 -60 561 -60 584 0 7 -9 12 -20
12 -11 0 -29 6 -40 12 -16 10 -24 10 -40 0 -11 -6 -49 -12 -85 -12 l-66 0 -18
43 c-13 31 -26 134 -50 387 -46 509 -73 730 -88 727 -15 -3 -14 13 5 41 13 19
13 32 4 73 -7 28 -12 81 -12 119 0 66 1 68 31 80 28 12 42 10 129 -17 l98 -30
7 53 c8 63 25 82 61 66 30 -15 40 -37 24 -57 -10 -13 -10 -19 3 -33 8 -9 17
-30 19 -46 3 -28 11 -33 100 -69 77 -31 98 -44 107 -65 5 -15 29 -220 51 -457
29 -298 46 -437 56 -452 15 -23 19 -65 7 -76 -3 -4 -5 -35 -4 -69 1 -33 -2
-64 -7 -67 -12 -8 -25 -61 -14 -61 5 0 14 16 22 35 8 19 20 35 27 35 18 0 16
-38 -2 -56 -8 -9 -15 -31 -15 -50 0 -30 -5 -36 -37 -49 -21 -9 -46 -14 -57
-11 -10 3 -32 2 -47 -1 -26 -5 -28 -9 -35 -70 -4 -39 -2 -74 4 -88 6 -12 16
-70 22 -126 19 -181 14 -169 65 -169 82 0 124 -40 143 -135 7 -34 12 -40 35
-43 15 -2 33 -12 40 -23 9 -15 23 -19 62 -19 28 0 64 4 82 9 25 7 33 6 38 -6
13 -36 20 7 25 160 6 184 21 211 33 60 14 -175 16 -181 40 -185 30 -4 36 -52
9 -67 -11 -6 -22 -7 -26 -4 -3 3 -6 2 -6 -3 0 -11 62 -44 81 -44 6 0 8 9 4 21
-10 31 30 69 72 69 23 0 33 5 33 15 0 21 30 31 40 14 7 -10 24 -6 87 21 43 19
80 38 81 42 2 4 19 8 37 8 18 0 35 5 37 12 6 17 28 0 28 -21 0 -13 18 -26 58
-44 64 -29 182 -47 182 -28 0 13 56 15 65 1 3 -5 12 -7 20 -3 33 12 45 -16 45
-111 1 -86 2 -89 14 -60 8 18 19 35 25 38 17 11 13 24 -9 31 -16 5 -20 14 -19
38 2 18 2 73 1 124 l-2 92 -40 28 c-45 32 -48 41 -20 76 25 31 25 36 1 30 -17
-4 -19 -1 -14 36 3 23 0 105 -7 183 -12 124 -16 144 -35 162 -16 15 -20 27
-15 41 4 11 33 145 66 298 56 265 60 280 93 319 l34 40 -10 76 c-5 43 -8 82
-6 89 3 7 29 31 58 53 47 36 58 41 87 35 18 -4 41 -12 51 -17 26 -13 98 -108
91 -120 -10 -16 17 -56 43 -63 13 -3 21 -10 18 -15 -3 -5 -1 -18 5 -29 8 -17
20 -19 85 -19 42 1 78 5 81 9 11 19 33 7 55 -28 12 -21 31 -51 41 -68 10 -16
39 -72 64 -123 l46 -93 -17 -227 c-19 -272 -28 -319 -62 -335 -36 -16 -52 -54
-40 -97 19 -72 20 -119 3 -126 -9 -3 -24 0 -33 7 -14 12 -15 11 -10 -6 8 -30
23 -108 43 -222 16 -94 19 -101 36 -92 10 5 23 7 28 4 14 -9 -7 -45 -25 -45
-17 0 -20 -16 -5 -25 15 -9 12 -25 -4 -19 -11 4 -13 -3 -9 -38 7 -51 9 -54 26
-40 9 8 24 9 48 2 48 -14 119 -13 124 2 2 7 6 64 8 126 3 62 7 115 9 117 1 2
15 1 30 -2 22 -4 26 -10 26 -34 -1 -16 -7 -34 -15 -40 -16 -14 -18 -89 -1 -89
6 0 4 -7 -5 -18 -10 -10 -17 -31 -17 -45 0 -25 3 -27 44 -27 25 0 48 5 51 10
4 6 10 8 15 5 15 -9 23 17 9 26 -11 8 -11 12 5 24 10 8 22 16 27 17 10 4 15
90 6 105 -4 6 1 20 11 32 13 16 30 22 72 23 30 1 58 6 61 11 4 6 20 0 38 -12
17 -12 31 -21 32 -19 6 24 26 235 22 241 -2 4 -12 7 -21 7 -19 1 -58 48 -47
58 3 4 15 -4 25 -18 l20 -25 0 31 c0 17 6 37 14 43 8 7 17 40 20 74 14 130 18
157 27 157 5 0 9 -49 9 -110 l0 -110 40 0 c38 0 40 1 40 33 0 64 -41 248 -70
312 -24 54 -35 110 -70 357 -23 161 -59 383 -80 493 -21 110 -66 346 -100 525
-33 179 -74 390 -90 470 -27 138 -29 171 -10 140 5 -7 66 -178 136 -379 200
-573 299 -837 328 -872 20 -23 26 -42 26 -77 0 -32 20 -98 65 -219 l65 -173 0
-309 0 -309 53 -6 c178 -19 182 -20 185 -43 3 -21 0 -22 -90 -25 l-94 -3 100
-171 99 -172 65 137 c88 187 94 202 86 210 -4 3 -9 0 -11 -6 -7 -20 -33 -15
-33 6 0 11 -3 26 -6 35 -3 9 -1 16 6 16 6 0 8 -5 5 -10 -8 -13 18 -13 31 0 7
7 28 8 53 4 38 -6 42 -9 39 -33 -2 -15 -13 -30 -28 -38 -14 -7 -19 -13 -11
-13 20 0 10 -29 -79 -218 -44 -95 -80 -178 -80 -187 0 -19 14 -19 30 0 16 19
49 19 56 0 4 -8 14 -15 23 -15 13 0 16 8 13 41 -3 32 1 46 19 65 12 13 28 24
35 24 9 0 10 10 3 38 -11 46 -3 115 19 164 17 38 31 49 33 26 0 -7 5 2 10 19
5 18 16 33 24 33 22 0 34 30 24 58 -12 31 -10 33 45 39 37 5 46 2 55 -15 6
-11 8 -33 5 -49 -5 -25 -1 -31 29 -45 24 -12 36 -25 40 -46 3 -16 14 -32 24
-36 10 -3 24 -9 31 -12 9 -4 12 19 12 99 0 81 3 107 15 117 14 11 14 15 -1 38
-10 15 -15 39 -12 63 2 21 1 39 -2 39 -3 0 -17 -21 -29 -48 -36 -71 -37 -33
-2 58 31 79 31 81 31 274 l0 194 36 93 c22 59 45 102 61 116 24 19 25 25 15
47 -9 20 -8 34 3 67 9 23 20 48 25 54 5 7 7 15 4 18 -3 3 12 61 34 129 22 68
43 139 46 159 4 20 15 44 26 54 11 10 22 34 25 54 13 79 17 93 34 109 10 9 46
98 80 197 35 99 112 316 172 481 60 166 109 307 109 313 0 6 5 11 10 11 6 0
10 -72 10 -195 l0 -195 222 7 c167 5 219 3 214 -5 -5 -9 62 -12 273 -12 163 0
282 -4 286 -9 5 -9 -289 -680 -415 -946 -45 -96 -89 -205 -107 -270 -3 -11
-27 -43 -53 -70 -40 -43 -48 -58 -53 -103 -4 -37 -39 -127 -112 -288 -58 -129
-105 -246 -105 -259 0 -29 92 -369 118 -433 l17 -44 82 4 c96 4 90 9 147 -141
35 -95 37 -111 10 -111 -8 0 -14 -10 -14 -25 0 -24 3 -25 60 -25 l60 0 0 55
c0 42 3 55 15 55 11 0 15 -11 15 -40 0 -50 31 -82 75 -77 20 3 29 9 27 19 -1
8 4 21 12 27 11 9 17 8 28 -4 46 -57 55 -62 115 -57 34 3 61 10 66 18 4 8 16
14 27 14 22 0 60 45 60 71 0 11 6 19 13 19 18 0 37 -21 37 -41 0 -14 19 -29
37 -29 2 0 2 13 -2 28 -5 24 3 37 51 90 54 60 76 112 48 112 -18 0 -18 16 0
23 14 5 14 22 1 88 -7 36 6 61 20 39 3 -5 35 -10 71 -10 67 0 75 -4 47 -26
-10 -7 -15 -15 -12 -19 4 -3 51 39 104 94 54 56 103 101 108 101 5 0 53 -20
105 -45 100 -48 112 -47 112 3 0 17 6 22 24 22 46 0 56 10 56 52 l0 41 -45 -6
c-36 -5 -45 -4 -45 8 0 20 -30 19 -45 -1 -10 -15 -49 -16 -413 -9 -335 6 -402
10 -402 21 0 21 62 167 76 179 7 6 74 146 150 313 121 267 135 306 126 327 -9
20 -8 26 6 34 9 5 22 9 27 9 6 0 54 98 108 218 222 500 412 904 422 904 13 0
13 1 92 175 l54 119 -29 26 c-46 39 -52 59 -52 189 0 118 1 121 22 121 l21 0
-22 24 c-15 16 -24 41 -28 80 -6 53 -7 56 -34 56 -24 0 -29 -5 -35 -35 -8 -45
-21 -45 -30 0 -7 40 -9 41 -126 50 -51 4 -78 2 -78 -4 0 -7 -152 -12 -457 -13
-399 -3 -458 -5 -458 -18 0 -8 -7 -15 -15 -15 -9 0 -14 7 -12 18 3 16 -13 17
-211 17 -187 0 -216 -2 -221 -16 -4 -11 -14 -14 -33 -10 -56 12 -286 20 -598
20 l-319 1 -113 -420 c-62 -231 -113 -430 -113 -443 0 -13 -6 -35 -14 -50 -7
-15 -30 -84 -51 -154 -21 -71 -41 -128 -45 -128 -3 0 -66 213 -139 473 -86
302 -142 483 -156 502 -33 45 -91 159 -100 197 l-7 26 -550 0 c-544 1 -603 4
-558 32 15 9 -160 12 -240 3z m220 -138 c10 -12 10 -15 -4 -15 -9 0 -16 7 -16
15 0 8 2 15 4 15 2 0 9 -7 16 -15z m1955 -40 c0 -15 -8 -21 -32 -23 -36 -4
-42 8 -17 33 21 21 49 15 49 -10z m823 -83 c3 -28 0 -33 -15 -30 -12 2 -19 14
-21 36 -3 28 0 33 15 30 12 -2 19 -14 21 -36z m-4277 -7 c-1 -15 -24 -12 -29
3 -3 9 2 13 12 10 10 -1 17 -7 17 -13z m3389 -79 c0 -21 -20 -30 -33 -17 -9 9
-8 14 3 21 21 14 30 12 30 -4z m-2810 -596 c0 -5 -5 -10 -11 -10 -5 0 -7 5 -4
10 3 6 8 10 11 10 2 0 4 -4 4 -10z m4978 -43 c-7 -14 -13 -17 -16 -9 -6 19 6
44 18 37 7 -4 6 -14 -2 -28z m-6626 -299 c-15 -15 -24 -6 -16 16 5 12 10 14
17 7 8 -8 8 -14 -1 -23z m6508 -139 c0 -10 -4 -19 -10 -19 -5 0 -10 12 -10 26
0 14 4 23 10 19 6 -3 10 -15 10 -26z m-3915 -344 c0 -11 -7 -21 -15 -22 -24
-4 -41 12 -34 31 9 24 49 17 49 -9z m1175 -363 c0 -13 -12 -22 -22 -16 -10 6
-1 24 13 24 5 0 9 -4 9 -8z m-810 -92 c0 -5 -9 -10 -21 -10 -11 0 -17 5 -14
10 3 6 13 10 21 10 8 0 14 -4 14 -10z m-150 -10 c0 -5 -4 -10 -10 -10 -5 0
-10 5 -10 10 0 6 5 10 10 10 6 0 10 -4 10 -10z m115 -20 c3 -5 1 -10 -4 -10
-6 0 -11 5 -11 10 0 6 2 10 4 10 3 0 8 -4 11 -10z m-65 -143 c0 -19 -27 -53
-35 -45 -12 12 4 58 20 58 8 0 15 -6 15 -13z m-2890 -21 c0 -20 -25 -37 -44
-30 -19 7 -20 16 -4 32 16 16 48 15 48 -2z m2860 -46 c0 -5 -5 -10 -11 -10 -5
0 -7 5 -4 10 3 6 8 10 11 10 2 0 4 -4 4 -10z m-20 -55 c0 -8 -6 -15 -14 -15
-17 0 -28 14 -19 24 12 12 33 6 33 -9z m338 -19 c3 -12 -1 -17 -10 -14 -7 3
-15 13 -16 22 -3 12 1 17 10 14 7 -3 15 -13 16 -22z m-2918 -51 c0 -8 -7 -15
-15 -15 -8 0 -15 7 -15 15 0 8 7 15 15 15 8 0 15 -7 15 -15z m2639 -2 c12 -23
-4 -53 -29 -53 -25 0 -39 48 -19 61 21 13 37 11 48 -8z m-3459 -207 c0 -8 -4
-18 -10 -21 -5 -3 -10 3 -10 14 0 12 5 21 10 21 6 0 10 -6 10 -14z m4844 -29
c-3 -9 -11 -17 -16 -17 -6 0 -7 7 -4 16 3 9 6 21 6 27 0 8 3 8 10 1 6 -6 8
-18 4 -27z m-292 -44 c19 -17 24 -43 9 -43 -25 0 -41 14 -41 36 0 28 7 30 32
7z m2618 -29 c0 -8 -4 -12 -10 -9 -5 3 -10 10 -10 16 0 5 5 9 10 9 6 0 10 -7
10 -16z m-3760 -30 c0 -8 -4 -12 -10 -9 -5 3 -10 10 -10 16 0 5 5 9 10 9 6 0
10 -7 10 -16z m1390 -4 c0 -5 -7 -10 -16 -10 -8 0 -12 5 -9 10 3 6 10 10 16
10 5 0 9 -4 9 -10z m-1497 -14 c3 -8 3 -16 0 -19 -9 -10 -33 5 -33 19 0 18 26
18 33 0z m3658 -76 c25 -14 25 -56 1 -62 -21 -6 -42 20 -42 52 0 22 12 25 41
10z m-3593 -22 c-6 -18 -28 -21 -28 -4 0 9 7 16 16 16 9 0 14 -5 12 -12z
m-3354 -79 c-3 -5 -9 -9 -15 -9 -11 0 -12 43 -2 54 9 9 25 -33 17 -45z m3314
19 c-2 -18 -7 -33 -13 -33 -5 0 -11 15 -13 33 -3 24 1 32 13 32 12 0 16 -8 13
-32z m126 14 c8 -14 -5 -52 -18 -52 -23 0 -36 22 -25 42 10 19 34 24 43 10z
m146 -42 c0 -5 -2 -10 -4 -10 -3 0 -8 5 -11 10 -3 6 -1 10 4 10 6 0 11 -4 11
-10z m130 0 c0 -5 -4 -10 -10 -10 -5 0 -10 5 -10 10 0 6 5 10 10 10 6 0 10 -4
10 -10z m-416 -29 c3 -4 3 -11 0 -14 -8 -8 -34 3 -34 14 0 11 27 12 34 0z
m3614 -18 c16 -18 21 -28 13 -31 -14 -5 -51 31 -51 48 0 17 11 12 38 -17z
m-3338 -18 c-7 -8 -16 -15 -21 -15 -14 0 -11 38 4 43 20 7 31 -11 17 -28z
m-3530 3 c0 -16 -3 -19 -11 -11 -6 6 -8 16 -5 22 11 17 16 13 16 -11z m3360
12 c0 -5 -11 -10 -25 -10 -14 0 -25 5 -25 10 0 6 11 10 25 10 14 0 25 -4 25
-10z m218 -18 c3 -16 -1 -20 -12 -16 -19 7 -22 48 -3 42 6 -3 13 -14 15 -26z
m-38 -32 c0 -5 -4 -10 -10 -10 -5 0 -10 5 -10 10 0 6 5 10 10 10 6 0 10 -4 10
-10z m-174 -54 c-2 -42 -8 -50 -35 -41 -25 8 -27 32 -4 57 25 28 40 22 39 -16z
m174 4 c0 -5 -4 -10 -10 -10 -5 0 -10 5 -10 10 0 6 5 10 10 10 6 0 10 -4 10
-10z m2864 -95 c3 -9 -1 -18 -10 -22 -19 -7 -39 11 -30 26 10 16 33 13 40 -4z
m231 -35 c3 -5 -1 -10 -9 -10 -9 0 -16 5 -16 10 0 6 4 10 9 10 6 0 13 -4 16
-10z"/>
<path d="M1491 3039 c-11 -28 9 -55 32 -46 18 7 12 40 -9 58 -11 9 -16 6 -23
-12z"/>
<path d="M1550 2891 c0 -12 6 -21 16 -21 9 0 14 7 12 17 -5 25 -28 28 -28 4z"/>
<path d="M546 2791 c-6 -43 1 -74 15 -65 12 7 12 91 0 98 -5 3 -11 -12 -15
-33z"/>
<path d="M1897 2154 c-10 -11 -8 -44 2 -44 6 0 13 4 16 10 8 12 -9 43 -18 34z"/>
<path d="M3952 1639 c1 -12 8 -24 15 -26 7 -3 9 3 6 17 -8 29 -25 37 -21 9z"/>
<path d="M6502 1382 c-60 -134 -64 -168 -26 -182 21 -8 25 -15 22 -42 -3 -30
0 -33 26 -36 16 -2 33 1 39 7 6 6 29 8 53 4 l43 -6 -4 46 c-3 35 -87 313 -99
324 -1 1 -26 -50 -54 -115z"/>
<path d="M3589 1390 c-5 -29 -2 -35 21 -40 24 -6 25 -10 34 -120 5 -63 11
-109 13 -102 3 6 11 12 20 12 12 0 14 -9 8 -52 -4 -29 -11 -63 -16 -75 -4 -12
-7 -49 -7 -84 l1 -62 85 7 c46 3 89 9 94 12 5 3 0 21 -12 40 -11 20 -20 41
-20 49 0 7 -14 51 -31 99 -28 75 -33 83 -46 70 -12 -11 -18 -12 -29 -3 -13 10
-12 15 6 34 l21 22 -23 77 c-20 70 -25 78 -52 83 -16 4 -31 14 -33 25 -6 19
-32 25 -34 8z"/>
<path d="M8391 1384 c0 -11 3 -14 6 -6 3 7 2 16 -1 19 -3 4 -6 -2 -5 -13z"/>
<path d="M4942 1229 c4 -82 9 -124 18 -129 12 -8 11 -38 -5 -87 -10 -30 36
-73 68 -65 32 8 77 41 77 58 0 8 5 14 10 14 6 0 10 5 10 12 0 14 -169 318
-177 318 -3 0 -4 -54 -1 -121z"/>
<path d="M4747 1310 c3 -11 7 -20 9 -20 2 0 4 9 4 20 0 11 -4 20 -9 20 -5 0
-7 -9 -4 -20z"/>
<path d="M5710 1205 c-10 -12 -9 -16 4 -21 9 -3 16 -18 17 -33 l1 -26 8 25
c19 60 1 93 -30 55z"/>
<path d="M7750 1140 c0 -27 4 -50 9 -50 15 0 23 18 11 25 -15 9 -2 25 20 25
23 0 32 13 24 34 -4 10 -18 16 -35 16 -28 0 -29 -2 -29 -50z"/>
<path d="M617 1153 c-11 -10 -8 -61 3 -68 6 -3 10 1 10 9 0 9 5 16 10 16 6 0
10 6 10 14 0 17 -24 38 -33 29z"/>
<path d="M1940 1091 c0 -5 28 -18 62 -29 52 -17 67 -19 88 -9 14 7 25 19 25
27 0 17 -44 27 -54 12 -11 -17 -68 -22 -81 -7 -14 17 -40 20 -40 6z"/>
<path d="M5656 1069 c-5 -10 3 -38 18 -68 14 -28 26 -57 26 -66 0 -8 7 -15 15
-15 8 0 15 9 15 20 0 11 -6 20 -14 20 -8 0 -17 15 -20 33 -4 17 -13 46 -20 62
-11 24 -15 27 -20 14z"/>
<path d="M1950 1009 c0 -5 5 -7 10 -4 6 3 10 8 10 11 0 2 -4 4 -10 4 -5 0 -10
-5 -10 -11z"/>
<path d="M2600 1000 c0 -5 5 -10 11 -10 5 0 7 5 4 10 -3 6 -8 10 -11 10 -2 0
-4 -4 -4 -10z"/>
<path d="M5755 965 c-4 -25 -5 -48 -2 -51 3 -3 9 15 12 41 4 25 5 48 2 51 -3
3 -9 -15 -12 -41z"/>
<path d="M3568 920 c-3 -66 0 -74 22 -60 20 12 19 85 -2 106 -15 15 -16 12
-20 -46z"/>
<path d="M5452 939 c-12 -18 -11 -20 4 -17 9 1 18 11 20 21 3 23 -8 22 -24 -4z"/>
<path d="M1062 885 c0 -16 2 -22 5 -12 2 9 2 23 0 30 -3 6 -5 -1 -5 -18z"/>
<path d="M1090 880 c0 -16 5 -30 10 -30 6 0 10 6 10 14 0 8 5 16 12 18 15 5 1
28 -18 28 -9 0 -14 -11 -14 -30z"/>
<path d="M2595 901 c-3 -5 -1 -12 5 -16 5 -3 10 1 10 9 0 18 -6 21 -15 7z"/>
<path d="M3380 899 c0 -5 5 -7 10 -4 6 3 10 8 10 11 0 2 -4 4 -10 4 -5 0 -10
-5 -10 -11z"/>
<path d="M5212 880 c0 -14 2 -19 5 -12 2 6 2 18 0 25 -3 6 -5 1 -5 -13z"/>
<path d="M3366 872 c-2 -4 -1 -14 5 -22 7 -12 9 -10 9 8 0 23 -5 28 -14 14z"/>
<path d="M4953 850 c1 -20 9 -26 35 -30 43 -7 42 -24 -3 -28 -51 -5 -48 -32 4
-32 48 0 101 18 101 35 0 7 7 15 15 19 8 3 15 11 15 17 0 8 -17 10 -60 6 -36
-4 -60 -3 -60 3 0 5 6 7 14 4 18 -7 30 12 14 23 -7 4 -28 8 -45 8 -29 0 -33
-3 -30 -25z"/>
<path d="M4678 863 c6 -2 18 -2 25 0 6 3 1 5 -13 5 -14 0 -19 -2 -12 -5z"/>
<path d="M5216 766 c3 -9 11 -16 16 -16 13 0 5 23 -10 28 -7 2 -10 -2 -6 -12z"/>
<path d="M5278 753 c7 -3 16 -2 19 1 4 3 -2 6 -13 5 -11 0 -14 -3 -6 -6z"/>
</g>
</svg>
